<?xml version="1.0" encoding="UTF-8"?>
<svg xmlns="http://www.w3.org/2000/svg" xmlns:xlink="http://www.w3.org/1999/xlink" width="375pt" height="374.999991pt" viewBox="0 0 375 374.999991" version="1.2">
<defs>
<clipPath id="clip1">
  <path d="M 53.71875 44.492188 L 321.46875 44.492188 L 321.46875 312.242188 L 53.71875 312.242188 Z M 53.71875 44.492188 "/>
</clipPath>
</defs>
<g id="surface1">
<g clip-path="url(#clip1)" clip-rule="nonzero">
<path style=" stroke:none;fill-rule:nonzero;fill:whitesmoke;fill-opacity:1;" d="M 187.6875 44.570312 C 113.851562 44.570312 53.792969 104.632812 53.792969 178.460938 C 53.792969 252.292969 113.851562 312.355469 187.6875 312.355469 C 261.515625 312.355469 321.582031 252.292969 321.582031 178.460938 C 321.582031 104.632812 261.515625 44.570312 187.6875 44.570312 Z M 248.898438 164.289062 C 244.421875 168.765625 237.167969 168.765625 232.6875 164.289062 L 200.886719 132.488281 L 200.886719 256.707031 C 200.886719 263.039062 195.75 268.171875 189.421875 268.171875 C 183.089844 268.171875 177.957031 263.039062 177.957031 256.707031 L 177.957031 132.488281 L 146.148438 164.289062 C 143.910156 166.53125 140.980469 167.648438 138.042969 167.648438 C 135.113281 167.648438 132.175781 166.527344 129.9375 164.289062 C 125.457031 159.816406 125.457031 152.554688 129.9375 148.078125 L 181.316406 96.703125 C 183.464844 94.554688 186.382812 93.34375 189.421875 93.34375 C 192.460938 93.34375 195.378906 94.554688 197.53125 96.703125 L 248.902344 148.078125 C 253.378906 152.554688 253.378906 159.816406 248.898438 164.289062 Z M 248.898438 164.289062 "/>
</g>
</g>
</svg>
