<?xml version="1.0" encoding="UTF-8"?>
<svg xmlns="http://www.w3.org/2000/svg" xmlns:xlink="http://www.w3.org/1999/xlink" width="375pt" height="374.999991pt" viewBox="0 0 375 374.999991" version="1.2">
<defs>
<clipPath id="clip1">
  <path d="M 59.789062 64.496094 L 305.789062 64.496094 L 305.789062 310.496094 L 59.789062 310.496094 Z M 59.789062 64.496094 "/>
</clipPath>
</defs>
<g id="surface1">
<g clip-path="url(#clip1)" clip-rule="nonzero">
<path style=" stroke:none;fill-rule:nonzero;fill:white;fill-opacity:1;" d="M 182.789062 64.496094 C 114.945312 64.496094 59.789062 119.652344 59.789062 187.496094 C 59.789062 255.335938 114.945312 310.496094 182.789062 310.496094 C 250.632812 310.496094 305.789062 255.335938 305.789062 187.496094 C 305.789062 119.652344 250.632812 64.496094 182.789062 64.496094 Z M 182.789062 302.808594 C 119.175781 302.808594 67.476562 251.109375 67.476562 187.496094 C 67.476562 123.882812 119.175781 72.183594 182.789062 72.183594 C 246.402344 72.183594 298.101562 123.882812 298.101562 187.496094 C 298.101562 251.109375 246.402344 302.808594 182.789062 302.808594 Z M 182.789062 302.808594 "/>
</g>
<path style=" stroke:none;fill-rule:nonzero;fill:white;fill-opacity:1;" d="M 184.328125 83.714844 C 184.132812 83.714844 183.558594 83.714844 182.789062 83.714844 C 182.789062 83.714844 182.789062 83.714844 182.597656 83.714844 C 181.828125 83.714844 180.867188 83.714844 180.867188 83.714844 C 125.132812 84.675781 79.777344 129.839844 79.007812 185.957031 C 78.238281 243.230469 123.980469 290.507812 181.25 291.277344 C 181.828125 291.277344 182.210938 291.277344 182.789062 291.277344 C 239.484375 291.277344 285.800781 245.726562 286.570312 189.03125 C 287.339844 131.761719 241.597656 84.484375 184.328125 83.714844 Z M 244.097656 190.1875 C 242.367188 203.445312 231.988281 214.402344 223.726562 221.320312 L 196.242188 246.113281 C 195.472656 246.6875 194.511719 247.074219 193.742188 247.074219 C 192.78125 247.074219 192.015625 246.6875 191.246094 246.113281 C 189.707031 244.765625 189.515625 242.652344 190.476562 241.117188 L 215.269531 204.023438 C 216.804688 201.71875 217.574219 199.027344 217.574219 196.527344 C 217.574219 188.265625 210.078125 181.730469 201.046875 181.730469 L 167.414062 181.730469 L 167.414062 200.949219 C 167.414062 202.484375 166.453125 203.832031 165.109375 204.40625 C 164.53125 204.601562 164.148438 204.792969 163.570312 204.792969 C 162.609375 204.792969 161.648438 204.40625 161.070312 203.832031 L 122.632812 169.429688 C 121.867188 168.660156 121.289062 167.699219 121.289062 166.546875 C 121.289062 165.394531 121.671875 164.433594 122.632812 163.664062 L 161.070312 128.878906 C 161.648438 128.300781 162.609375 127.917969 163.570312 127.917969 C 164.148438 127.917969 164.53125 128.109375 165.109375 128.300781 C 166.453125 128.878906 167.414062 130.222656 167.414062 131.761719 L 167.414062 152.902344 L 213.539062 152.902344 C 213.539062 152.902344 213.730469 152.902344 213.730469 152.902344 C 222.957031 153.476562 231.21875 157.515625 236.792969 164.433594 C 242.558594 171.542969 245.25 180.769531 244.097656 190.1875 Z M 244.097656 190.1875 "/>
</g>
</svg>
